<mxfile host="65bd71144e">
    <diagram name="front page" id="03018318-947c-dd8e-b7a3-06fadd420f32">
        <mxGraphModel dx="887" dy="602" grid="1" gridSize="10" guides="1" tooltips="1" connect="1" arrows="1" fold="1" page="1" pageScale="1" pageWidth="1100" pageHeight="850" background="none" math="0" shadow="0">
            <root>
                <mxCell id="0"/>
                <mxCell id="1" parent="0"/>
                <mxCell id="677b7b8949515195-1" value="" style="whiteSpace=wrap;html=1;rounded=0;shadow=0;labelBackgroundColor=none;strokeColor=#000000;strokeWidth=1;fillColor=none;fontFamily=Verdana;fontSize=12;fontColor=#000000;align=center;comic=1;" parent="1" vertex="1">
                    <mxGeometry x="20" y="20" width="1060" height="810" as="geometry"/>
                </mxCell>
                <mxCell id="677b7b8949515195-2" value="LOGO" style="whiteSpace=wrap;html=1;rounded=0;shadow=0;labelBackgroundColor=none;strokeWidth=1;fontFamily=Verdana;fontSize=28;align=center;comic=1;" parent="1" vertex="1">
                    <mxGeometry x="430" y="50" width="190" height="50" as="geometry"/>
                </mxCell>
                <mxCell id="677b7b8949515195-3" value="Search" style="strokeWidth=1;shadow=0;dashed=0;align=center;html=1;shape=mxgraph.mockup.forms.searchBox;strokeColor=#999999;mainText=;strokeColor2=#008cff;fontColor=#666666;fontSize=17;align=left;spacingLeft=3;rounded=0;labelBackgroundColor=none;comic=1;" parent="1" vertex="1">
                    <mxGeometry x="390" y="160" width="220" height="30" as="geometry"/>
                </mxCell>
                <mxCell id="677b7b8949515195-4" value="signup" style="text;html=1;points=[];align=left;verticalAlign=top;spacingTop=-4;fontSize=14;fontFamily=Verdana" parent="1" vertex="1">
                    <mxGeometry x="780" y="90" width="60" height="20" as="geometry"/>
                </mxCell>
                <mxCell id="677b7b8949515195-5" value="login" style="text;html=1;points=[];align=left;verticalAlign=top;spacingTop=-4;fontSize=14;fontFamily=Verdana" parent="1" vertex="1">
                    <mxGeometry x="860" y="90" width="60" height="20" as="geometry"/>
                </mxCell>
                <mxCell id="677b7b8949515195-6" value="logout" style="text;html=1;points=[];align=left;verticalAlign=top;spacingTop=-4;fontSize=14;fontFamily=Verdana" parent="1" vertex="1">
                    <mxGeometry x="940" y="90" width="60" height="20" as="geometry"/>
                </mxCell>
                <mxCell id="677b7b8949515195-7" value="about" style="text;html=1;points=[];align=left;verticalAlign=top;spacingTop=-4;fontSize=14;fontFamily=Verdana" parent="1" vertex="1">
                    <mxGeometry x="1010" y="90" width="60" height="20" as="geometry"/>
                </mxCell>
                <mxCell id="677b7b8949515195-9" value="" style="line;strokeWidth=1;html=1;rounded=0;shadow=0;labelBackgroundColor=none;fillColor=none;fontFamily=Verdana;fontSize=14;fontColor=#000000;align=center;comic=1;" parent="1" vertex="1">
                    <mxGeometry x="20" y="140" width="1060" height="10" as="geometry"/>
                </mxCell>
                <mxCell id="677b7b8949515195-15" value="&lt;div style=&quot;text-align: justify&quot;&gt;INFO&lt;/div&gt;" style="whiteSpace=wrap;html=1;rounded=0;shadow=0;labelBackgroundColor=none;strokeWidth=1;fillColor=none;fontFamily=Verdana;fontSize=12;align=center;verticalAlign=top;spacing=10;comic=1;" parent="1" vertex="1">
                    <mxGeometry x="250" y="640" width="550" height="180" as="geometry"/>
                </mxCell>
                <mxCell id="4m_A8qP_XdSms_ViWhWR-2" value="" style="whiteSpace=wrap;html=1;rounded=0;shadow=0;labelBackgroundColor=none;strokeWidth=1;fillColor=none;fontFamily=Verdana;fontSize=12;align=center;comic=1;" parent="1" vertex="1">
                    <mxGeometry x="240" y="200" width="560" height="420" as="geometry"/>
                </mxCell>
                <mxCell id="4m_A8qP_XdSms_ViWhWR-3" value="List of fishing places" style="text;html=1;points=[];align=left;verticalAlign=top;spacingTop=-4;fontSize=14;fontFamily=Verdana" parent="1" vertex="1">
                    <mxGeometry x="440" y="220" width="170" height="20" as="geometry"/>
                </mxCell>
                <mxCell id="4m_A8qP_XdSms_ViWhWR-4" value="Lake card" style="text;html=1;points=[];align=left;verticalAlign=top;spacingTop=-4;fontSize=14;fontFamily=Verdana" parent="1" vertex="1">
                    <mxGeometry x="440" y="256" width="170" height="20" as="geometry"/>
                </mxCell>
                <mxCell id="4m_A8qP_XdSms_ViWhWR-12" value="Lake card" style="text;html=1;points=[];align=left;verticalAlign=top;spacingTop=-4;fontSize=14;fontFamily=Verdana" parent="1" vertex="1">
                    <mxGeometry x="440" y="290" width="170" height="20" as="geometry"/>
                </mxCell>
                <mxCell id="4m_A8qP_XdSms_ViWhWR-13" value="Lake card" style="text;html=1;points=[];align=left;verticalAlign=top;spacingTop=-4;fontSize=14;fontFamily=Verdana" parent="1" vertex="1">
                    <mxGeometry x="440" y="330" width="170" height="20" as="geometry"/>
                </mxCell>
                <mxCell id="4m_A8qP_XdSms_ViWhWR-14" value="Lake card" style="text;html=1;points=[];align=left;verticalAlign=top;spacingTop=-4;fontSize=14;fontFamily=Verdana" parent="1" vertex="1">
                    <mxGeometry x="440" y="364" width="170" height="20" as="geometry"/>
                </mxCell>
                <mxCell id="4m_A8qP_XdSms_ViWhWR-15" value="Lake card" style="text;html=1;points=[];align=left;verticalAlign=top;spacingTop=-4;fontSize=14;fontFamily=Verdana" parent="1" vertex="1">
                    <mxGeometry x="440" y="410" width="170" height="20" as="geometry"/>
                </mxCell>
                <mxCell id="4m_A8qP_XdSms_ViWhWR-16" value="Lake card" style="text;html=1;points=[];align=left;verticalAlign=top;spacingTop=-4;fontSize=14;fontFamily=Verdana" parent="1" vertex="1">
                    <mxGeometry x="440" y="444" width="170" height="20" as="geometry"/>
                </mxCell>
                <mxCell id="4m_A8qP_XdSms_ViWhWR-17" value="Lake card" style="text;html=1;points=[];align=left;verticalAlign=top;spacingTop=-4;fontSize=14;fontFamily=Verdana" parent="1" vertex="1">
                    <mxGeometry x="440" y="480" width="170" height="20" as="geometry"/>
                </mxCell>
                <mxCell id="4m_A8qP_XdSms_ViWhWR-18" value="Lake card" style="text;html=1;points=[];align=left;verticalAlign=top;spacingTop=-4;fontSize=14;fontFamily=Verdana" parent="1" vertex="1">
                    <mxGeometry x="440" y="514" width="170" height="20" as="geometry"/>
                </mxCell>
                <mxCell id="aTXVsTwYd_xUM5hYyQpY-1" value="" style="verticalLabelPosition=bottom;shadow=0;dashed=0;align=center;html=1;verticalAlign=top;strokeWidth=1;shape=mxgraph.mockup.graphics.simpleIcon;strokeColor=#999999;" parent="1" vertex="1">
                    <mxGeometry x="40" y="206" width="170" height="384" as="geometry"/>
                </mxCell>
                <mxCell id="aTXVsTwYd_xUM5hYyQpY-2" value="" style="verticalLabelPosition=bottom;shadow=0;dashed=0;align=center;html=1;verticalAlign=top;strokeWidth=1;shape=mxgraph.mockup.graphics.simpleIcon;strokeColor=#999999;" parent="1" vertex="1">
                    <mxGeometry x="850" y="200" width="170" height="384" as="geometry"/>
                </mxCell>
            </root>
        </mxGraphModel>
    </diagram>
    <diagram name="card s" id="EzgKf7Z-kD3HxeQ43itp">
        <mxGraphModel dx="887" dy="602" grid="1" gridSize="10" guides="1" tooltips="1" connect="1" arrows="1" fold="1" page="1" pageScale="1" pageWidth="1100" pageHeight="850" background="none" math="0" shadow="0">
            <root>
                <mxCell id="4qpZKm50DoI8Ir5wt_5x-0"/>
                <mxCell id="4qpZKm50DoI8Ir5wt_5x-1" parent="4qpZKm50DoI8Ir5wt_5x-0"/>
                <mxCell id="4qpZKm50DoI8Ir5wt_5x-11" value="" style="whiteSpace=wrap;html=1;rounded=0;shadow=0;labelBackgroundColor=none;strokeWidth=1;fillColor=none;fontFamily=Verdana;fontSize=12;align=center;comic=1;" parent="4qpZKm50DoI8Ir5wt_5x-1" vertex="1">
                    <mxGeometry x="240" y="200" width="670" height="150" as="geometry"/>
                </mxCell>
                <mxCell id="4qpZKm50DoI8Ir5wt_5x-12" value="Description" style="text;html=1;points=[];align=left;verticalAlign=top;spacingTop=-4;fontSize=14;fontFamily=Verdana" parent="4qpZKm50DoI8Ir5wt_5x-1" vertex="1">
                    <mxGeometry x="400" y="210" width="170" height="20" as="geometry"/>
                </mxCell>
                <mxCell id="jg8_0STZkWMaSN2QKiol-0" value="address" style="text;html=1;points=[];align=left;verticalAlign=top;spacingTop=-4;fontSize=14;fontFamily=Verdana" parent="4qpZKm50DoI8Ir5wt_5x-1" vertex="1">
                    <mxGeometry x="500" y="210" width="170" height="20" as="geometry"/>
                </mxCell>
                <mxCell id="jg8_0STZkWMaSN2QKiol-1" value="opening hours" style="text;html=1;points=[];align=left;verticalAlign=top;spacingTop=-4;fontSize=14;fontFamily=Verdana" parent="4qpZKm50DoI8Ir5wt_5x-1" vertex="1">
                    <mxGeometry x="600" y="210" width="170" height="20" as="geometry"/>
                </mxCell>
                <mxCell id="jg8_0STZkWMaSN2QKiol-2" value="" style="verticalLabelPosition=bottom;shadow=0;dashed=0;align=center;html=1;verticalAlign=top;strokeWidth=1;shape=mxgraph.mockup.graphics.simpleIcon;strokeColor=#999999;" parent="4qpZKm50DoI8Ir5wt_5x-1" vertex="1">
                    <mxGeometry x="260" y="210" width="120" height="120" as="geometry"/>
                </mxCell>
                <mxCell id="jg8_0STZkWMaSN2QKiol-3" value="details" style="rounded=1;fillColor=#0057D8;strokeColor=none;html=1;fontColor=#ffffff;align=center;verticalAlign=middle;fontStyle=0;fontSize=12;sketch=0;" parent="4qpZKm50DoI8Ir5wt_5x-1" vertex="1">
                    <mxGeometry x="800" y="230" width="86" height="33" as="geometry"/>
                </mxCell>
                <mxCell id="jg8_0STZkWMaSN2QKiol-4" value="order permit" style="rounded=1;fillColor=#0057D8;strokeColor=none;html=1;fontColor=#ffffff;align=center;verticalAlign=middle;fontStyle=0;fontSize=12;sketch=0;" parent="4qpZKm50DoI8Ir5wt_5x-1" vertex="1">
                    <mxGeometry x="800" y="750" width="86" height="33" as="geometry"/>
                </mxCell>
                <mxCell id="cgeDyBhEJg5GGR4bTRV9-0" value="&lt;span style=&quot;color: rgba(0 , 0 , 0 , 0) ; font-family: monospace ; font-size: 0px&quot;&gt;%3CmxGraphModel%3E%3Croot%3E%3CmxCell%20id%3D%220%22%2F%3E%3CmxCell%20id%3D%221%22%20parent%3D%220%22%2F%3E%3CmxCell%20id%3D%222%22%20value%3D%22opening%20hours%22%20style%3D%22text%3Bhtml%3D1%3Bpoints%3D%5B%5D%3Balign%3Dleft%3BverticalAlign%3Dtop%3BspacingTop%3D-4%3BfontSize%3D14%3BfontFamily%3DVerdana%22%20vertex%3D%221%22%20parent%3D%221%22%3E%3CmxGeometry%20x%3D%22600%22%20y%3D%22210%22%20width%3D%22170%22%20height%3D%2220%22%20as%3D%22geometry%22%2F%3E%3C%2FmxCell%3E%3C%2Froot%3E%3C%2FmxGraphModel%3E&lt;/span&gt;" style="whiteSpace=wrap;html=1;rounded=0;shadow=0;labelBackgroundColor=none;strokeWidth=1;fillColor=none;fontFamily=Verdana;fontSize=12;align=center;comic=1;" parent="4qpZKm50DoI8Ir5wt_5x-1" vertex="1">
                    <mxGeometry x="240" y="410" width="670" height="400" as="geometry"/>
                </mxCell>
                <mxCell id="cgeDyBhEJg5GGR4bTRV9-1" value="" style="verticalLabelPosition=bottom;shadow=0;dashed=0;align=center;html=1;verticalAlign=top;strokeWidth=1;shape=mxgraph.mockup.graphics.simpleIcon;strokeColor=#999999;" parent="4qpZKm50DoI8Ir5wt_5x-1" vertex="1">
                    <mxGeometry x="270" y="425" width="170" height="125" as="geometry"/>
                </mxCell>
                <mxCell id="cgeDyBhEJg5GGR4bTRV9-2" value="" style="verticalLabelPosition=bottom;shadow=0;dashed=0;align=center;html=1;verticalAlign=top;strokeWidth=1;shape=mxgraph.mockup.graphics.simpleIcon;strokeColor=#999999;" parent="4qpZKm50DoI8Ir5wt_5x-1" vertex="1">
                    <mxGeometry x="270" y="560" width="170" height="130" as="geometry"/>
                </mxCell>
                <mxCell id="cgeDyBhEJg5GGR4bTRV9-3" value="Detailed description&lt;br&gt;dfgjkdfklg&lt;br&gt;dfgkdfgjkl&lt;br&gt;dsgkdfklgdg&lt;br&gt;dfgkjdflkgdkljg&lt;br&gt;dfklgdjklfgjkdg&lt;br&gt;kdfgjdlfgdjkfg&lt;br&gt;dfgdklfgdjklg&lt;br&gt;dfgjkdfklgdlfkgj&lt;br&gt;dfjklgdlkfgdfjklg&lt;br&gt;dfkjgdklfgdjkfg&lt;br&gt;dklfgjdgjdfjg&lt;br&gt;dsfjklgdfjkgdjklfg&lt;br&gt;dsjkgdfjklgdfjklg" style="text;html=1;points=[];align=left;verticalAlign=top;spacingTop=-4;fontSize=14;fontFamily=Verdana" parent="4qpZKm50DoI8Ir5wt_5x-1" vertex="1">
                    <mxGeometry x="465" y="440" width="170" height="250" as="geometry"/>
                </mxCell>
                <mxCell id="cgeDyBhEJg5GGR4bTRV9-4" value="address:&lt;br&gt;&lt;br&gt;bla&amp;nbsp;&lt;br&gt;bla&lt;br&gt;bla" style="text;html=1;points=[];align=left;verticalAlign=top;spacingTop=-4;fontSize=14;fontFamily=Verdana" parent="4qpZKm50DoI8Ir5wt_5x-1" vertex="1">
                    <mxGeometry x="670" y="450" width="170" height="100" as="geometry"/>
                </mxCell>
                <mxCell id="cgeDyBhEJg5GGR4bTRV9-5" value="opening hours&lt;br&gt;bla&lt;br&gt;bla&lt;br&gt;bla" style="text;html=1;points=[];align=left;verticalAlign=top;spacingTop=-4;fontSize=14;fontFamily=Verdana" parent="4qpZKm50DoI8Ir5wt_5x-1" vertex="1">
                    <mxGeometry x="660" y="560" width="170" height="70" as="geometry"/>
                </mxCell>
                <mxCell id="cgeDyBhEJg5GGR4bTRV9-6" value="Prices&lt;br&gt;bla&lt;br&gt;bla&lt;br&gt;bla" style="text;html=1;points=[];align=left;verticalAlign=top;spacingTop=-4;fontSize=14;fontFamily=Verdana" parent="4qpZKm50DoI8Ir5wt_5x-1" vertex="1">
                    <mxGeometry x="650" y="660" width="170" height="70" as="geometry"/>
                </mxCell>
                <mxCell id="cgeDyBhEJg5GGR4bTRV9-7" value="Lake Card" style="text;html=1;points=[];align=left;verticalAlign=top;spacingTop=-4;fontSize=14;fontFamily=Verdana" parent="4qpZKm50DoI8Ir5wt_5x-1" vertex="1">
                    <mxGeometry x="240" y="160" width="170" height="20" as="geometry"/>
                </mxCell>
                <mxCell id="lEFtn1cMm5FSjHkimbDS-0" value="details Card" style="text;html=1;points=[];align=left;verticalAlign=top;spacingTop=-4;fontSize=14;fontFamily=Verdana" parent="4qpZKm50DoI8Ir5wt_5x-1" vertex="1">
                    <mxGeometry x="235" y="380" width="170" height="20" as="geometry"/>
                </mxCell>
                <mxCell id="Se4mV-Tx79sS6hXXV1lL-0" value="Edit lake" style="rounded=1;fillColor=#0057D8;strokeColor=none;html=1;fontColor=#ffffff;align=center;verticalAlign=middle;fontStyle=0;fontSize=12;sketch=0;" parent="4qpZKm50DoI8Ir5wt_5x-1" vertex="1">
                    <mxGeometry x="282" y="760" width="86" height="33" as="geometry"/>
                </mxCell>
                <mxCell id="Se4mV-Tx79sS6hXXV1lL-1" value="only visible if owner" style="text;html=1;points=[];align=left;verticalAlign=top;spacingTop=-4;fontSize=14;fontFamily=Verdana" parent="4qpZKm50DoI8Ir5wt_5x-1" vertex="1">
                    <mxGeometry x="380" y="766.5" width="170" height="20" as="geometry"/>
                </mxCell>
                <mxCell id="Se4mV-Tx79sS6hXXV1lL-2" value="delete" style="rounded=1;fillColor=#0057D8;strokeColor=none;html=1;fontColor=#ffffff;align=center;verticalAlign=middle;fontStyle=0;fontSize=12;sketch=0;" parent="4qpZKm50DoI8Ir5wt_5x-1" vertex="1">
                    <mxGeometry x="282" y="717" width="86" height="33" as="geometry"/>
                </mxCell>
                <mxCell id="Se4mV-Tx79sS6hXXV1lL-3" value="require logged in" style="text;html=1;points=[];align=left;verticalAlign=top;spacingTop=-4;fontSize=14;fontFamily=Verdana" parent="4qpZKm50DoI8Ir5wt_5x-1" vertex="1">
                    <mxGeometry x="630" y="756.5" width="170" height="20" as="geometry"/>
                </mxCell>
                <mxCell id="Se4mV-Tx79sS6hXXV1lL-4" value="require logged in" style="text;html=1;points=[];align=left;verticalAlign=top;spacingTop=-4;fontSize=14;fontFamily=Verdana" parent="4qpZKm50DoI8Ir5wt_5x-1" vertex="1">
                    <mxGeometry x="740" y="265" width="170" height="20" as="geometry"/>
                </mxCell>
            </root>
        </mxGraphModel>
    </diagram>
    <diagram name="card s 2" id="30-LHI650aqXJUtBu4Fq">
        <mxGraphModel dx="887" dy="602" grid="1" gridSize="10" guides="1" tooltips="1" connect="1" arrows="1" fold="1" page="1" pageScale="1" pageWidth="1100" pageHeight="850" background="none" math="0" shadow="0">
            <root>
                <mxCell id="VJyE5P2p9NrBZjFXhsIu-0"/>
                <mxCell id="VJyE5P2p9NrBZjFXhsIu-1" parent="VJyE5P2p9NrBZjFXhsIu-0"/>
                <mxCell id="VJyE5P2p9NrBZjFXhsIu-2" value="" style="whiteSpace=wrap;html=1;rounded=0;shadow=0;labelBackgroundColor=none;strokeWidth=1;fillColor=none;fontFamily=Verdana;fontSize=12;align=center;comic=1;" parent="VJyE5P2p9NrBZjFXhsIu-1" vertex="1">
                    <mxGeometry x="210" y="70" width="670" height="470" as="geometry"/>
                </mxCell>
                <mxCell id="VJyE5P2p9NrBZjFXhsIu-7" value="register" style="rounded=1;fillColor=#0057D8;strokeColor=none;html=1;fontColor=#ffffff;align=center;verticalAlign=middle;fontStyle=0;fontSize=12;sketch=0;" parent="VJyE5P2p9NrBZjFXhsIu-1" vertex="1">
                    <mxGeometry x="229" y="460" width="116" height="50" as="geometry"/>
                </mxCell>
                <mxCell id="VJyE5P2p9NrBZjFXhsIu-12" value="Detailed description&lt;br&gt;" style="text;html=1;points=[];align=left;verticalAlign=top;spacingTop=-4;fontSize=14;fontFamily=Verdana" parent="VJyE5P2p9NrBZjFXhsIu-1" vertex="1">
                    <mxGeometry x="230" y="270" width="170" height="20" as="geometry"/>
                </mxCell>
                <mxCell id="VJyE5P2p9NrBZjFXhsIu-13" value="address:&lt;br&gt;" style="text;html=1;points=[];align=left;verticalAlign=top;spacingTop=-4;fontSize=14;fontFamily=Verdana" parent="VJyE5P2p9NrBZjFXhsIu-1" vertex="1">
                    <mxGeometry x="230" y="240" width="170" height="30" as="geometry"/>
                </mxCell>
                <mxCell id="VJyE5P2p9NrBZjFXhsIu-14" value="opening hours&lt;br&gt;" style="text;html=1;points=[];align=left;verticalAlign=top;spacingTop=-4;fontSize=14;fontFamily=Verdana" parent="VJyE5P2p9NrBZjFXhsIu-1" vertex="1">
                    <mxGeometry x="235" y="330" width="170" height="30" as="geometry"/>
                </mxCell>
                <mxCell id="VJyE5P2p9NrBZjFXhsIu-15" value="Prices&lt;br&gt;" style="text;html=1;points=[];align=left;verticalAlign=top;spacingTop=-4;fontSize=14;fontFamily=Verdana" parent="VJyE5P2p9NrBZjFXhsIu-1" vertex="1">
                    <mxGeometry x="235" y="300" width="70" height="27.5" as="geometry"/>
                </mxCell>
                <mxCell id="VJyE5P2p9NrBZjFXhsIu-16" value="Signup and same content for edit lake" style="text;html=1;points=[];align=left;verticalAlign=top;spacingTop=-4;fontSize=14;fontFamily=Verdana" parent="VJyE5P2p9NrBZjFXhsIu-1" vertex="1">
                    <mxGeometry x="210" y="30" width="340" height="20" as="geometry"/>
                </mxCell>
                <mxCell id="wIjymMzAdwK7Jz02Vjpj-1" value="Name" style="text;html=1;points=[];align=left;verticalAlign=top;spacingTop=-4;fontSize=14;fontFamily=Verdana" parent="VJyE5P2p9NrBZjFXhsIu-1" vertex="1">
                    <mxGeometry x="230" y="80" width="170" height="20" as="geometry"/>
                </mxCell>
                <mxCell id="wIjymMzAdwK7Jz02Vjpj-2" value="address" style="text;html=1;points=[];align=left;verticalAlign=top;spacingTop=-4;fontSize=14;fontFamily=Verdana" parent="VJyE5P2p9NrBZjFXhsIu-1" vertex="1">
                    <mxGeometry x="230" y="130" width="80" height="20" as="geometry"/>
                </mxCell>
                <mxCell id="wIjymMzAdwK7Jz02Vjpj-3" value="phone number" style="text;html=1;points=[];align=left;verticalAlign=top;spacingTop=-4;fontSize=14;fontFamily=Verdana" parent="VJyE5P2p9NrBZjFXhsIu-1" vertex="1">
                    <mxGeometry x="230" y="150" width="170" height="20" as="geometry"/>
                </mxCell>
                <mxCell id="wIjymMzAdwK7Jz02Vjpj-6" value="e-mail" style="text;html=1;points=[];align=left;verticalAlign=top;spacingTop=-4;fontSize=14;fontFamily=Verdana" parent="VJyE5P2p9NrBZjFXhsIu-1" vertex="1">
                    <mxGeometry x="230" y="100" width="170" height="20" as="geometry"/>
                </mxCell>
                <mxCell id="wIjymMzAdwK7Jz02Vjpj-7" value="&lt;b&gt;checkmark owner of lake&lt;/b&gt;" style="text;html=1;points=[];align=left;verticalAlign=top;spacingTop=-4;fontSize=14;fontFamily=Verdana" parent="VJyE5P2p9NrBZjFXhsIu-1" vertex="1">
                    <mxGeometry x="230" y="200" width="210" height="20" as="geometry"/>
                </mxCell>
                <mxCell id="wIjymMzAdwK7Jz02Vjpj-8" value="CVR number" style="text;html=1;points=[];align=left;verticalAlign=top;spacingTop=-4;fontSize=14;fontFamily=Verdana" parent="VJyE5P2p9NrBZjFXhsIu-1" vertex="1">
                    <mxGeometry x="230" y="410" width="170" height="30" as="geometry"/>
                </mxCell>
                <mxCell id="wIjymMzAdwK7Jz02Vjpj-9" value="company phone number" style="text;html=1;points=[];align=left;verticalAlign=top;spacingTop=-4;fontSize=14;fontFamily=Verdana" parent="VJyE5P2p9NrBZjFXhsIu-1" vertex="1">
                    <mxGeometry x="229" y="370" width="170" height="20" as="geometry"/>
                </mxCell>
                <mxCell id="tfKhNdJjyud9JskmZYkt-0" value="" style="whiteSpace=wrap;html=1;rounded=0;shadow=0;labelBackgroundColor=none;strokeWidth=1;fillColor=none;fontFamily=Verdana;fontSize=12;align=center;comic=1;" parent="VJyE5P2p9NrBZjFXhsIu-1" vertex="1">
                    <mxGeometry x="220" y="640" width="670" height="150" as="geometry"/>
                </mxCell>
                <mxCell id="tfKhNdJjyud9JskmZYkt-1" value="email&amp;nbsp;" style="text;html=1;points=[];align=left;verticalAlign=top;spacingTop=-4;fontSize=14;fontFamily=Verdana" parent="VJyE5P2p9NrBZjFXhsIu-1" vertex="1">
                    <mxGeometry x="395" y="660" width="170" height="20" as="geometry"/>
                </mxCell>
                <mxCell id="tfKhNdJjyud9JskmZYkt-2" value="password" style="text;html=1;points=[];align=left;verticalAlign=top;spacingTop=-4;fontSize=14;fontFamily=Verdana" parent="VJyE5P2p9NrBZjFXhsIu-1" vertex="1">
                    <mxGeometry x="395" y="713" width="170" height="20" as="geometry"/>
                </mxCell>
                <mxCell id="tfKhNdJjyud9JskmZYkt-3" value="login" style="rounded=1;fillColor=#0057D8;strokeColor=none;html=1;fontColor=#ffffff;align=center;verticalAlign=middle;fontStyle=0;fontSize=12;sketch=0;" parent="VJyE5P2p9NrBZjFXhsIu-1" vertex="1">
                    <mxGeometry x="405" y="750" width="86" height="33" as="geometry"/>
                </mxCell>
                <mxCell id="tfKhNdJjyud9JskmZYkt-4" value="login" style="text;html=1;points=[];align=left;verticalAlign=top;spacingTop=-4;fontSize=14;fontFamily=Verdana" parent="VJyE5P2p9NrBZjFXhsIu-1" vertex="1">
                    <mxGeometry x="235" y="610" width="170" height="20" as="geometry"/>
                </mxCell>
                <mxCell id="tfKhNdJjyud9JskmZYkt-5" value="lake name" style="text;html=1;points=[];align=left;verticalAlign=top;spacingTop=-4;fontSize=14;fontFamily=Verdana" parent="VJyE5P2p9NrBZjFXhsIu-1" vertex="1">
                    <mxGeometry x="229" y="220" width="170" height="20" as="geometry"/>
                </mxCell>
                <mxCell id="tfKhNdJjyud9JskmZYkt-6" value="pictures (link)" style="text;html=1;points=[];align=left;verticalAlign=top;spacingTop=-4;fontSize=14;fontFamily=Verdana" parent="VJyE5P2p9NrBZjFXhsIu-1" vertex="1">
                    <mxGeometry x="550" y="230" width="170" height="20" as="geometry"/>
                </mxCell>
            </root>
        </mxGraphModel>
    </diagram>
    <diagram name="card s 3" id="Kog-bOLBiIL39jo3EtVT">
        <mxGraphModel dx="887" dy="602" grid="1" gridSize="10" guides="1" tooltips="1" connect="1" arrows="1" fold="1" page="1" pageScale="1" pageWidth="1100" pageHeight="850" background="none" math="0" shadow="0">
            <root>
                <mxCell id="qDPxSHgvEoIbaNm9d3oi-0"/>
                <mxCell id="qDPxSHgvEoIbaNm9d3oi-1" parent="qDPxSHgvEoIbaNm9d3oi-0"/>
                <mxCell id="qDPxSHgvEoIbaNm9d3oi-2" value="" style="whiteSpace=wrap;html=1;rounded=0;shadow=0;labelBackgroundColor=none;strokeWidth=1;fillColor=none;fontFamily=Verdana;fontSize=12;align=center;comic=1;" parent="qDPxSHgvEoIbaNm9d3oi-1" vertex="1">
                    <mxGeometry x="210" y="70" width="670" height="470" as="geometry"/>
                </mxCell>
                <mxCell id="qDPxSHgvEoIbaNm9d3oi-3" value="order" style="rounded=1;fillColor=#0057D8;strokeColor=none;html=1;fontColor=#ffffff;align=center;verticalAlign=middle;fontStyle=0;fontSize=12;sketch=0;" parent="qDPxSHgvEoIbaNm9d3oi-1" vertex="1">
                    <mxGeometry x="235" y="330" width="116" height="50" as="geometry"/>
                </mxCell>
                <mxCell id="qDPxSHgvEoIbaNm9d3oi-8" value="order permit" style="text;html=1;points=[];align=left;verticalAlign=top;spacingTop=-4;fontSize=14;fontFamily=Verdana" parent="qDPxSHgvEoIbaNm9d3oi-1" vertex="1">
                    <mxGeometry x="210" y="30" width="170" height="20" as="geometry"/>
                </mxCell>
                <mxCell id="qDPxSHgvEoIbaNm9d3oi-9" value="Name" style="text;html=1;points=[];align=left;verticalAlign=top;spacingTop=-4;fontSize=14;fontFamily=Verdana" parent="qDPxSHgvEoIbaNm9d3oi-1" vertex="1">
                    <mxGeometry x="235" y="110" width="170" height="20" as="geometry"/>
                </mxCell>
                <mxCell id="qDPxSHgvEoIbaNm9d3oi-10" value="address" style="text;html=1;points=[];align=left;verticalAlign=top;spacingTop=-4;fontSize=14;fontFamily=Verdana" parent="qDPxSHgvEoIbaNm9d3oi-1" vertex="1">
                    <mxGeometry x="230" y="170" width="80" height="20" as="geometry"/>
                </mxCell>
                <mxCell id="qDPxSHgvEoIbaNm9d3oi-11" value="phone number" style="text;html=1;points=[];align=left;verticalAlign=top;spacingTop=-4;fontSize=14;fontFamily=Verdana" parent="qDPxSHgvEoIbaNm9d3oi-1" vertex="1">
                    <mxGeometry x="229" y="200" width="170" height="20" as="geometry"/>
                </mxCell>
                <mxCell id="qDPxSHgvEoIbaNm9d3oi-12" value="e-mail" style="text;html=1;points=[];align=left;verticalAlign=top;spacingTop=-4;fontSize=14;fontFamily=Verdana" parent="qDPxSHgvEoIbaNm9d3oi-1" vertex="1">
                    <mxGeometry x="235" y="140" width="170" height="20" as="geometry"/>
                </mxCell>
                <mxCell id="qDPxSHgvEoIbaNm9d3oi-33" value="Lake name" style="text;html=1;points=[];align=left;verticalAlign=top;spacingTop=-4;fontSize=14;fontFamily=Verdana" parent="qDPxSHgvEoIbaNm9d3oi-1" vertex="1">
                    <mxGeometry x="235" y="240" width="170" height="20" as="geometry"/>
                </mxCell>
                <mxCell id="qDPxSHgvEoIbaNm9d3oi-34" value="Date" style="text;html=1;points=[];align=left;verticalAlign=top;spacingTop=-4;fontSize=14;fontFamily=Verdana" parent="qDPxSHgvEoIbaNm9d3oi-1" vertex="1">
                    <mxGeometry x="235" y="280" width="170" height="20" as="geometry"/>
                </mxCell>
                <mxCell id="qDPxSHgvEoIbaNm9d3oi-36" value="submit will send a bill for payment as a mail to the user. all data will be prefilled &lt;br&gt;based on user&amp;nbsp;logged in and which lake was selected.&lt;br&gt;&lt;br&gt;date needs to be filled in." style="text;html=1;points=[];align=left;verticalAlign=top;spacingTop=-4;fontSize=14;fontFamily=Verdana" parent="qDPxSHgvEoIbaNm9d3oi-1" vertex="1">
                    <mxGeometry x="250" y="390" width="620" height="80" as="geometry"/>
                </mxCell>
            </root>
        </mxGraphModel>
    </diagram>
</mxfile>